<svg xmlns:inkscape="http://www.inkscape.org/namespaces/inkscape" xmlns:sodipodi="http://sodipodi.sourceforge.net/DTD/sodipodi-0.dtd" xmlns="http://www.w3.org/2000/svg" xmlns:svg="http://www.w3.org/2000/svg" version="1.1" id="svg2" sodipodi:docname="UiB_PositivEmblem.eps" viewBox="37.8 37.79 302.36 302.36" width="316.22776601683796" height="316.22776601683796">
  <defs id="defs6"/>
  <sodipodi:namedview id="namedview4" pagecolor="#ffffff" bordercolor="#000000" borderopacity="0.25" inkscape:showpageshadow="2" inkscape:pageopacity="0.0" inkscape:pagecheckerboard="0" inkscape:deskcolor="#d1d1d1"/>
  <g id="g8" inkscape:groupmode="layer" inkscape:label="ink_ext_XXXXXX" transform="matrix(1.3333333,0,0,-1.3333333,0,377.94667)">
    <g id="g10" transform="scale(0.1)">
      <path d="m 1621.11,1042.61 c -11.02,12.65 -26.99,9.09 -26.99,9.09 0.75,9.1 -0.31,10.98 -0.38,17.84 2.77,0 8.53,0.17 9.14,6.51 0.69,7.24 -10.41,5.46 -10.41,5.46 -2.03,12.22 -4.15,19.2 -7.93,29.71 16.91,-0.98 27.62,-4.65 34.14,-17.5 6.8,-13.36 7.91,-36.59 2.43,-51.11 z m -21.81,-51.751 c -9.73,-7.429 -19.41,-7.66 -23.28,-6.578 l -0.17,0.539 c 1.06,0.309 10.27,6.989 14.75,17.39 5.96,13.8 2.83,33.17 2.83,33.17 0,0 16.97,0.82 20.1,-9.87 2.38,-12.58 -5.02,-27.612 -14.23,-34.651 z m -76.68,43.271 c 2.49,18.95 5.27,25.1 5.27,25.1 0,0 2.83,5.1 9.02,5.43 6.19,0.33 11.85,3.9 11.62,9.02 -0.3,7.12 -16.68,4.71 -16.68,4.71 0,0 4.65,21.77 -7.74,47.27 5.94,4.71 17.58,4.97 29.68,0.98 19.69,-11.34 26.56,-70.94 19.2,-99.24 -17.08,23.15 -41.9,15.46 -50.37,6.73 z m -11.68,36.6 c 0,0 -7.19,5.45 -17.02,7.17 -13.25,2.3 -14.27,-8.93 -5.88,-11.27 9.24,-2.58 14.73,-5.04 19.4,-11.66 -0.38,-12.25 -4.28,-30.63 -4.28,-30.63 -11.78,15.59 -32.02,15.17 -44.54,1.82 -8.52,36.28 0.49,47.91 15.85,71.59 13.75,21.2 13.51,20.47 17.01,21.51 3.75,1.12 11.23,2.39 11.23,2.39 0,0 10.57,-6.64 10.75,-24.86 0.19,-18.22 -2.52,-26.06 -2.52,-26.06 z m -134.92,-44.57 c -12.52,13.35 -32.76,13.77 -44.53,-1.82 0,0 -3.9,18.38 -4.29,30.63 4.67,6.62 10.16,9.08 19.4,11.66 8.39,2.34 7.37,13.57 -5.87,11.27 -9.84,-1.72 -17.03,-7.17 -17.03,-7.17 0,0 -2.7,7.84 -2.52,26.06 0.19,18.22 10.76,24.86 10.76,24.86 0,0 7.47,-1.27 11.22,-2.39 3.5,-1.04 3.26,-0.31 17.01,-21.51 15.36,-23.68 24.38,-35.31 15.85,-71.59 z m -114.37,1.24 c -7.35,28.3 -0.5,87.9 19.21,99.24 12.09,3.99 23.73,3.73 29.67,-0.98 -12.38,-25.5 -7.74,-47.27 -7.74,-47.27 0,0 -16.38,2.41 -16.68,-4.71 -0.22,-5.12 5.43,-8.69 11.62,-9.02 6.19,-0.33 9.02,-5.43 9.02,-5.43 0,0 2.78,-6.15 5.28,-25.1 -8.48,8.73 -33.3,16.42 -50.38,-6.73 z m -3.03,-43.119 c -3.87,-1.082 -13.55,-0.851 -23.28,6.578 -9.21,7.039 -16.61,22.071 -14.22,34.651 3.12,10.69 20.09,9.87 20.09,9.87 0,0 -3.13,-19.37 2.83,-33.17 4.49,-10.401 13.7,-17.069 14.76,-17.39 z m -42.67,109.439 c 6.53,12.85 17.24,16.52 34.16,17.5 -3.79,-10.51 -5.91,-17.49 -7.94,-29.71 0,0 -11.1,1.78 -10.4,-5.46 0.6,-6.34 6.37,-6.51 9.13,-6.51 -0.07,-6.86 -1.13,-8.74 -0.38,-17.84 0,0 -15.97,3.56 -26.98,-9.09 -5.48,14.52 -4.38,37.75 2.41,51.11 z m 308.88,-126.798 0.16,1.609 c 0,0 8.83,8.61 8.45,24.707 -0.38,15.322 -6.53,24.012 -6.53,24.012 0,0 6.57,10.22 19.7,5.94 13.13,-4.27 12.73,-14.82 12.71,-18.54 -0.08,-26.259 -28.76,-37.002 -34.49,-37.728 z m -26.9,-0.891 c -13.14,3.758 -27.8,17.649 -32.3,27.149 -3.75,7.92 -1.46,19.8 6.88,23.34 12.34,5.25 20.28,-5.19 19.53,-12.68 -2.93,-29.219 6.92,-37.141 6.92,-37.141 z m -128.92,27.149 c -4.5,-9.5 -19.16,-23.391 -32.29,-27.149 l -1.04,0.668 c 0,0 9.86,7.922 6.92,37.141 -0.75,7.49 7.2,17.93 19.53,12.68 8.34,-3.54 10.63,-15.42 6.88,-23.34 z m -93.69,11.47 c -0.01,3.72 -0.42,14.27 12.71,18.54 13.13,4.28 19.69,-5.94 19.69,-5.94 0,0 -6.14,-8.69 -6.51,-24.012 -0.39,-16.097 8.44,-24.707 8.44,-24.707 l 0.16,-1.609 c -5.73,0.726 -34.4,11.469 -34.49,37.728 z m -159.34,544.21 c 5.93,4.28 14.5,12.07 18.69,16.64 4.19,4.58 7.83,7.96 7.83,7.96 0,0 6.52,2.24 8.27,1.75 1.76,-0.49 2.34,-1.85 2.34,-1.85 0,0 -6.76,-14.18 -15.62,-27.43 -8.85,-13.23 -16.35,-19.47 -16.35,-19.47 -0.88,-0.68 -6.72,-0.48 -10.13,6.33 -3.41,6.82 -0.97,11.78 4.97,16.07 z m 2.54,117.36 c 0,0 38.08,20.72 53.07,39.89 15,19.18 26.97,46.55 29.44,49.97 2.46,3.41 8.92,6.07 7.97,-1.52 -0.95,-7.59 -18.87,-59.32 -31.59,-76.59 -12.72,-17.28 -43.52,-33.96 -49.02,-35.47 -9.11,5.88 -11.77,19.36 -9.87,23.72 z m 25.77,71.48 c 0.76,7.63 1.58,24.94 5.7,33.05 1.05,1.09 4.28,2.7 5.48,3.46 0.98,-1.55 1.41,-4.85 1.62,-7.26 0.4,-4.67 5.88,-40.82 5.88,-40.82 0,0 0.41,-3.26 -6.29,-6.5 -6.71,-3.25 -10.36,-3.05 -11.17,-2.44 0,0 -2.04,12.39 -1.22,20.51 z m 24.54,217.27 c 2.5,1.39 11.61,-3.98 17.94,-4.51 3.51,-0.29 6.44,4.91 6.44,7.39 0,3.72 1.25,1.7 -16.83,12.17 -5.7,3.29 -4.12,13.46 -0.66,19 2.71,4.36 8.37,-1.58 12,-4.47 3.63,-2.88 9.72,-7.34 11.64,-6.59 1.92,0.74 4.43,9.91 3.5,12.06 -1.97,4.52 -14.11,7.95 -17.44,15.46 -2.54,5.72 0.69,9.89 3.28,15.49 1.28,2.76 11.51,6.75 16.57,8.44 4.43,1.48 28.11,-5.28 32.03,-8.89 4.79,-4.39 5.53,-11.04 10.87,-21.72 5.34,-10.67 12.44,-18.71 14.46,-21.57 3.63,-5.13 -11.56,-11.41 -16.92,-8.51 -8.19,4.44 -14.85,10.36 -21.04,15.92 -6.19,5.55 -9.46,-4.53 -7.86,-8.91 1.6,-4.38 5.67,-10.29 14.78,-17.17 6.65,-5.01 5.98,-6.74 4.23,-11 -2,-4.91 -5.24,-14.46 -6.55,-21.4 -0.99,-5.27 -3.49,-7.43 -7.15,-6.63 -33.03,7.24 -47.47,-2.12 -47.94,-6.72 -0.55,-5.22 12.64,-2.65 25.83,-4.6 18.03,-2.66 16.7,-4.29 19.65,-7.38 8.6,-9.03 8.75,-29.24 7.73,-31.28 -1.8,-3.63 -6.14,-5.51 -16.11,-12.93 -9.86,-7.35 -9.38,-9.72 -9.8,-18.43 -0.4,-8.36 4.83,-10.01 9.86,-1.55 4.49,7.55 18.12,18.56 25.27,20.06 7.15,1.49 13.22,-6.77 13.22,-6.77 0,0 1.94,-2.2 -3.8,-7.91 -12.27,-12.25 -15.52,-27.7 -11.81,-29.36 2.69,-1.21 3.74,4.04 11.63,14.97 8.33,11.56 15.46,13.32 15.46,13.32 0,0 6.51,-0.96 14.19,-3.31 7.69,-2.35 13.48,-6.51 13.48,-6.51 0,0 -6.58,-47.03 1.37,-48.38 5.94,-1 9.61,45.06 16.44,45.6 6.83,0.53 9.82,-13.57 13.99,-12.81 4.16,0.74 0.08,18.52 4.16,19.86 12.4,4.03 18.73,10.45 25.13,17.5 6.53,7.2 12.56,2.04 12.56,2.04 0,0 0.54,-23.71 -2.88,-22.53 -3.42,1.17 -2.67,7.47 -8.11,3.95 -5.45,-3.53 5.01,-21.68 8.54,-26.91 3.52,-5.23 3.41,-11.11 -4.92,-6.84 -8.32,4.27 -10.14,20.72 -14.2,11.32 -4.05,-9.39 2.46,-20.82 8.86,-26.69 6.41,-5.87 13.77,-7.03 13.77,-7.03 0,0 3.66,-10.59 -2.55,-15.87 -9.32,-7.94 -17.73,-8.64 -17.73,-8.64 0,0 -17.38,18.77 -18.47,39.26 -3.2,1.81 -4.94,-1.2 -5.73,-6.33 -1.84,-11.82 2.14,-36.62 -3.86,-38.65 -3.27,-1.11 -14.51,-1.47 -23.18,-0.97 -7.25,0.42 -9.27,3.61 -10.99,9.17 -1.7,5.55 0.43,13.47 -1.83,13.9 -4,0.76 -7.48,-3.95 -9.29,-10.04 -1.82,-6.09 -4.18,-6.97 -10.55,-6.59 -4.02,0.23 -8.69,2.09 -16.94,7.04 -10.82,6.5 6.24,37.67 9.98,43.43 3.74,5.77 -0.43,8.22 -7.58,1.07 -7.16,-7.15 -14.63,-23.17 -17.51,-29.04 -2.89,-5.87 -6.41,-5.77 -13.03,-0.32 -6.62,5.44 -16.02,7.16 -20.29,16.55 -4.27,9.4 -1.92,13.13 1.07,18.15 2.99,5.02 2.13,6.73 -0.64,6.73 -2.78,0 -6.41,-5.55 -6.41,-5.55 0,0 -4.41,-0.83 -7.02,2.78 -9.41,13.02 -10.98,35.58 -10.58,40.48 0.57,6.97 12.91,9.86 20.39,11.35 7.47,1.49 7.79,12.52 1.48,12.2 -6.29,-0.32 -10.62,-0.79 -18.38,-2.05 -8.91,-1.44 -10.71,21.95 -11.36,41.41 -0.63,18.89 2.78,33.41 6.14,35.29 z m -15.24,142.7 c -0.45,10.74 3.26,23.09 5.37,26.26 2.65,3.98 2.21,0.91 8.43,-11.73 4.87,-9.91 16.02,-16.26 24.49,-18.36 13.71,-3.39 24.03,0.37 49.4,-2.76 25.37,-3.13 36.53,-15.92 46.26,-24.96 12.15,-11.28 28.98,-21.89 26.75,-23.88 -3.55,-3.15 -16.56,-1.63 -32.5,13.6 -10.95,10.45 -20.03,13.36 -23.59,8.25 -4.67,-6.71 24.12,-29.13 21.29,-32.41 -2.83,-3.28 -19.36,14.03 -23.52,10.62 -2,-1.63 -1.45,-4.3 -0.25,-7 1.18,-2.68 9.09,-13.12 4.87,-16.73 -3.84,-3.27 -9.71,7.17 -14.17,13.73 -4.93,7.24 -13.18,9.03 -20.74,9.03 -5.68,0 -29.26,0.31 -48.51,14.35 -19.25,14.02 -23.13,31.25 -23.58,41.99 z m 182.43,3.46 c 19.61,5.65 35.12,-8.04 37.06,-16.14 -2.4,-5.52 -5.9,-5.92 -11.89,-3.1 -11.39,5.37 -27.13,3.59 -34.51,-15.13 -1.6,-4.06 -5.29,-3.99 -10.24,-2.1 -3.75,7.41 -0.39,30.72 19.58,36.47 z m 43.04,-46.78 c -0.72,-5.95 -5.6,-7.72 -9.33,-5.65 -8.98,4.99 -18.58,1.43 -21.18,-9.21 -1.34,-5.45 -4.95,-6.92 -11.14,-3.98 -4.34,7.36 -2.64,25.79 11.78,31.13 13.8,5.11 27.02,-4.64 29.87,-12.29 z m 38.43,56.06 c 12.09,0 28.38,-6.99 30.85,-24.28 -1.4,-7.4 -6.85,-6.38 -9.6,-2.92 -4.72,5.97 -11.65,9.95 -21.25,9.95 -9.61,0 -16.54,-3.98 -21.27,-9.95 -2.75,-3.46 -8.2,-4.48 -9.6,2.92 2.47,17.29 18.77,24.28 30.87,24.28 z m 68.27,-43.77 c 14.42,-5.34 16.95,-24.56 11.79,-31.13 -6.2,-2.94 -9.81,-1.47 -11.15,3.98 -2.61,10.64 -12.2,14.2 -21.18,9.21 -3.73,-2.07 -8.61,-0.3 -9.33,5.65 2.85,7.65 16.07,17.4 29.87,12.29 z m 13.17,34.49 c 19.98,-5.75 23.33,-29.06 19.58,-36.47 -4.95,-1.89 -8.65,-1.96 -10.24,2.1 -7.38,18.72 -23.12,20.5 -34.5,15.13 -6,-2.82 -9.5,-2.42 -11.89,3.1 1.93,8.1 17.44,21.79 37.05,16.14 z m 48.44,-35.01 c 9.73,9.04 20.89,21.83 46.26,24.96 25.37,3.13 35.69,-0.63 49.4,2.76 8.47,2.1 19.61,8.45 24.49,18.36 6.22,12.64 5.77,15.71 8.43,11.73 2.11,-3.17 5.82,-15.52 5.37,-26.26 -0.45,-10.74 -4.33,-27.97 -23.58,-41.99 -19.25,-14.04 -42.83,-14.35 -48.51,-14.35 -7.56,0 -15.82,-1.79 -20.74,-9.03 -4.46,-6.56 -10.33,-17 -14.18,-13.73 -4.21,3.61 3.7,14.05 4.88,16.73 1.2,2.7 1.74,5.37 -0.25,7 -4.16,3.41 -20.69,-13.9 -23.52,-10.62 -2.83,3.28 25.95,25.7 21.29,32.41 -3.56,5.11 -12.64,2.2 -23.59,-8.25 -15.94,-15.23 -28.95,-16.75 -32.5,-13.6 -2.23,1.99 14.6,12.6 26.75,23.88 z m 124.87,-146.44 c -0.65,-19.46 -2.45,-42.85 -11.36,-41.41 -7.76,1.26 -12.09,1.73 -18.39,2.05 -6.29,0.32 -5.98,-10.71 1.49,-12.2 7.48,-1.49 19.82,-4.38 20.39,-11.35 0.4,-4.9 -1.17,-27.47 -10.58,-40.48 -2.61,-3.61 -7.02,-2.78 -7.02,-2.78 0,0 -3.63,5.55 -6.41,5.55 -2.77,0 -3.63,-1.71 -0.64,-6.73 2.99,-5.02 5.34,-8.75 1.07,-18.15 -4.27,-9.39 -13.67,-11.11 -20.29,-16.55 -6.61,-5.45 -10.14,-5.55 -13.02,0.32 -2.89,5.87 -10.36,21.89 -17.51,29.04 -7.16,7.15 -11.32,4.7 -7.58,-1.07 3.74,-5.76 20.79,-36.93 9.97,-43.43 -8.25,-4.95 -12.91,-6.81 -16.94,-7.04 -6.36,-0.38 -8.73,0.5 -10.55,6.59 -1.81,6.09 -5.3,10.8 -9.29,10.04 -2.26,-0.43 -0.12,-8.35 -1.84,-13.9 -1.71,-5.56 -3.72,-8.75 -10.98,-9.17 -8.66,-0.5 -19.91,-0.14 -23.17,0.97 -6.01,2.03 -2.03,26.83 -3.86,38.65 -0.8,5.13 -2.54,8.14 -5.74,6.33 -1.09,-20.49 -18.47,-39.26 -18.47,-39.26 0,0 -8.41,0.7 -17.73,8.64 -6.21,5.28 -2.55,15.87 -2.55,15.87 0,0 7.36,1.16 13.76,7.03 6.41,5.87 12.93,17.3 8.87,26.69 -4.06,9.4 -5.87,-7.05 -14.21,-11.32 -8.32,-4.27 -8.42,1.61 -4.9,6.84 3.52,5.23 13.98,23.38 8.54,26.91 -5.45,3.52 -4.7,-2.78 -8.11,-3.95 -3.42,-1.18 -2.89,22.53 -2.89,22.53 0,0 6.03,5.15 12.56,-2.04 6.4,-7.05 12.73,-13.47 25.13,-17.5 4.09,-1.34 0,-19.12 4.17,-19.87 4.16,-0.75 7.15,13.35 13.98,12.82 6.84,-0.54 10.5,-46.6 16.45,-45.6 7.95,1.35 1.36,48.38 1.36,48.38 0,0 5.79,4.16 13.48,6.51 7.68,2.35 14.2,3.31 14.2,3.31 0,0 7.12,-1.76 15.45,-13.32 7.89,-10.93 8.94,-16.18 11.64,-14.97 3.7,1.66 0.45,17.11 -11.82,29.35 -5.74,5.72 -3.8,7.92 -3.8,7.92 0,0 6.07,8.26 13.22,6.77 7.15,-1.5 20.78,-12.51 25.27,-20.06 5.03,-8.46 10.26,-6.81 9.86,1.55 -0.42,8.71 0.06,11.08 -9.79,18.43 -9.98,7.42 -14.32,9.3 -16.13,12.93 -1.01,2.04 -0.86,22.25 7.75,31.28 2.94,3.09 1.61,4.72 19.64,7.38 13.19,1.95 26.37,-0.62 25.84,4.6 -0.48,4.6 -14.92,13.96 -47.94,6.72 -3.66,-0.8 -6.17,1.36 -7.16,6.63 -1.31,6.94 -4.55,16.49 -6.55,21.4 -1.75,4.26 -2.42,5.99 4.23,11 9.11,6.88 13.18,12.79 14.78,17.17 1.6,4.38 -1.66,14.46 -7.85,8.91 -6.2,-5.56 -12.85,-11.48 -21.05,-15.92 -5.36,-2.9 -20.55,3.38 -16.92,8.5 2.03,2.87 9.12,10.91 14.46,21.58 5.34,10.68 6.08,17.33 10.86,21.72 3.92,3.61 27.6,10.37 32.04,8.89 5.07,-1.69 15.3,-5.68 16.57,-8.44 2.6,-5.6 5.82,-9.77 3.29,-15.49 -3.34,-7.51 -15.48,-10.94 -17.45,-15.46 -0.93,-2.15 1.58,-11.32 3.5,-12.06 1.92,-0.75 8.01,3.71 11.64,6.59 3.63,2.89 9.3,8.83 12,4.47 3.46,-5.54 5.03,-15.71 -0.66,-19 -18.08,-10.47 -16.82,-8.45 -16.82,-12.17 0,-2.48 2.92,-7.68 6.43,-7.39 6.34,0.53 15.45,5.9 17.94,4.51 3.36,-1.88 6.77,-16.4 6.14,-35.29 z m 7.22,-145.47 c 1.21,-0.76 4.44,-2.37 5.48,-3.46 4.13,-8.11 4.95,-25.42 5.7,-33.05 0.82,-8.12 -1.21,-20.51 -1.21,-20.51 -0.81,-0.61 -4.47,-0.81 -11.18,2.44 -6.7,3.24 -6.29,6.5 -6.29,6.5 0,0 5.48,36.15 5.89,40.82 0.21,2.41 0.63,5.71 1.61,7.26 z m 36.95,-107.99 c 1.9,-4.36 -0.76,-17.84 -9.87,-23.72 -5.5,1.51 -36.3,18.19 -49.02,35.47 -12.72,17.27 -30.64,69 -31.58,76.59 -0.95,7.59 5.5,4.93 7.96,1.52 2.47,-3.42 14.44,-30.79 29.44,-49.97 14.99,-19.17 53.07,-39.89 53.07,-39.89 z m 2.55,-117.36 c 5.93,-4.29 8.37,-9.25 4.96,-16.07 -3.41,-6.81 -9.25,-7.01 -10.13,-6.33 0,0 -7.49,6.24 -16.35,19.47 -8.86,13.25 -15.62,27.43 -15.62,27.43 0,0 0.59,1.36 2.34,1.85 1.75,0.49 8.27,-1.76 8.27,-1.76 0,0 3.65,-3.37 7.83,-7.95 4.19,-4.57 12.75,-12.36 18.7,-16.64 z m -100.4,-418.44 c -3.4,-2.67 -8.54,-6.04 -12.86,-2.85 52.79,153.59 72.34,381.63 74.5,405.15 0,0 -0.8,2.82 2.57,1.89 3.38,-0.93 12.16,-15.86 18.19,-22.17 6.03,-6.32 -28.64,-270.54 -82.4,-382.02 z m -112.54,24.63 c -15.47,-14.45 -17,-8.18 -38.61,-24.81 -20.5,-15.76 -19.31,-30.43 -26.21,-32.22 0,0 -4.35,22.89 7.03,41.04 11.38,18.16 35.03,31.33 43.86,41.31 8.81,9.97 15.08,16.75 16.87,25.06 1.79,8.31 7.03,2.68 7.29,-0.39 0.26,-3.07 7.24,-33.68 -10.23,-49.99 z m -73.79,-12.25 c -2.02,3.67 -2.02,8.99 -0.74,24.03 1.29,15.03 6.97,20.28 13.21,23.58 6.23,3.3 21.61,11.78 33.56,30.27 16.19,25.04 13.74,41.12 13.74,41.12 l 1.65,1.28 c 0,0 8.03,-7.44 7.01,-28.45 -1.11,-22.9 -7.79,-40.9 -31.4,-57.72 -27.19,-19.36 -34.47,-33.55 -34.47,-33.55 0,0 -0.54,-4.22 -2.56,-0.56 z m -14.76,73.66 c -15.82,0 -29.35,12.34 -31.35,26.86 -1.6,11.62 2.06,24.81 7.32,36.79 5.26,11.97 14.64,21.09 14.64,21.09 0,0 1.72,-5.7 1.95,-14.99 0.39,-15.46 -5.97,-29.28 -9.09,-33.85 0.58,-3.92 3.61,-5.67 6.02,-5.56 7.57,0.36 5.41,17.97 11.88,17.97 4.24,-18.75 -3.6,-23.07 -5.36,-26.63 2.69,-2.06 4.24,-3.55 7.11,-2.63 11.4,3.65 15.59,16.58 14.09,26.01 -1.97,12.32 -9.72,17.56 -12.2,24.37 0.08,9.3 4.37,15.31 4.37,15.31 0,0 9.98,-7.08 15.25,-19.05 5.26,-11.98 8.31,-27.21 6.72,-38.83 -2,-14.52 -15.54,-26.86 -31.35,-26.86 z m -14.75,-73.66 c -2.02,-3.66 -2.57,0.56 -2.57,0.56 0,0 -7.27,14.19 -34.47,33.55 -23.61,16.82 -30.29,34.82 -31.39,57.72 -1.02,21.01 7.01,28.45 7.01,28.45 l 1.65,-1.28 c 0,0 -2.45,-16.08 13.74,-41.12 11.95,-18.49 27.33,-26.97 33.56,-30.27 6.23,-3.3 11.92,-8.55 13.2,-23.58 1.29,-15.04 1.29,-20.36 -0.73,-24.03 z m -8.98,-44.78 c -6.91,1.79 -5.72,16.46 -26.22,32.22 -21.61,16.63 -23.14,10.36 -38.61,24.81 -17.46,16.31 -10.49,46.93 -10.24,49.99 0.26,3.07 5.5,8.7 7.29,0.39 1.8,-8.31 8.06,-15.09 16.88,-25.06 8.83,-9.98 32.48,-23.15 43.87,-41.31 11.38,-18.15 7.03,-41.04 7.03,-41.04 z M 1177.3,1612.9 c -13.86,-13.28 -40.18,-21.94 -40.18,-21.94 0,0 -5.38,-2.69 -8.23,3.2 -2.85,5.89 -1.85,23.52 -1.85,23.52 0,0 36.92,14.68 53.63,35.18 11.79,14.48 15.33,25.76 16.66,30.51 1.33,4.74 5.69,8.35 5.88,3.42 0.19,-4.94 -1.28,-50.27 -25.91,-73.89 z m 39.75,25.51 c 0.19,0.46 5.1,4.39 5.01,3.04 -12.8,-187.3 40.04,-475.07 40.95,-479.79 2.54,-13.04 -10.83,-30.7 -12.38,-26.99 -40.55,96.99 -69.67,386.73 -70.29,424.2 -0.25,15.16 18.27,34.27 36.71,79.54 z m 123.91,320.79 c -2.77,7.21 10.61,12.33 17.93,13.85 9.98,2.08 18.58,-0.56 24.88,-3.13 2.9,-1.18 6.75,-6.17 0.13,-6.93 -6.63,-0.77 -10.25,-0.52 -16.58,-1.85 -10.53,-2.22 -23.48,-9.44 -26.36,-1.94 z m -22.59,-1.24 c 28.16,-9.53 38.66,-41.92 29.04,-70.37 -9.61,-28.44 -38.63,-43.03 -66.79,-33.5 -28.17,9.52 -40.28,41.18 -30.66,69.62 9.61,28.44 40.24,43.78 68.41,34.25 z m 21.34,46.96 c -2.26,0.34 -17.61,6.69 -43.73,-3.96 -11.75,-4.79 -20.33,-3.08 -21.88,-0.45 -6.91,11.71 27.82,18.5 36.65,18.88 21.35,0.9 28.8,-7.91 30.66,-10.52 1.69,-2.37 0.57,-4.3 -1.7,-3.95 z m 22.19,-14.75 c 3.93,-2.18 2.92,-7.5 -3.96,-6.81 -10.3,1.03 -13.12,1.35 -30.6,-4.36 -19.83,-6.48 -27.53,-0.92 -29.5,0.31 -1.97,1.23 -6.58,9.51 0.62,9.53 15.92,0.02 25.54,5.32 36.88,6.45 11.33,1.13 22.11,-2.65 26.56,-5.12 z m 29.06,31.01 c 0.76,-4.82 -2.32,-8.13 -5.24,-6.58 -4.28,8.92 -20.83,2.59 -15.34,-9.06 -0.22,-2.67 -4.49,-5.86 -9.14,-2.27 -6.61,5.09 -10.98,20.41 2.94,28.55 10.97,6.42 25.06,0.19 26.78,-10.64 z m 43.79,31.71 c -3.89,2.91 -8.54,7.68 -17.26,7.68 -8.73,0 -13.39,-4.77 -17.28,-7.68 -5.22,-3.9 -7.96,0.01 -10.07,2.97 0.99,9.31 13.3,21.37 27.35,21.37 14.05,0 26.34,-12.06 27.33,-21.37 -2.1,-2.96 -4.85,-6.87 -10.07,-2.97 z m 39.03,-49.57 c -4.64,-3.61 -8.92,-0.44 -9.16,2.23 5.44,11.67 -11.13,17.93 -15.37,8.99 -2.92,-1.55 -6.01,1.74 -5.27,6.57 1.67,10.83 15.74,17.12 26.73,10.75 13.95,-8.09 9.66,-23.41 3.07,-28.54 z m 25.8,-8.03 c 11.34,-1.13 20.95,-6.43 36.88,-6.45 7.2,-0.02 2.59,-8.3 0.61,-9.53 -1.96,-1.23 -9.66,-6.79 -29.5,-0.31 -17.47,5.71 -20.3,5.39 -30.59,4.36 -6.88,-0.69 -7.89,4.63 -3.97,6.81 4.46,2.47 15.23,6.25 26.57,5.12 z m 61.24,5.22 c -1.55,-2.63 -10.13,-4.34 -21.89,0.45 -26.11,10.65 -41.47,4.3 -43.73,3.96 -2.25,-0.35 -3.38,1.58 -1.69,3.95 1.85,2.61 9.31,11.42 30.66,10.52 8.82,-0.38 43.57,-7.17 36.65,-18.88 z m -44.26,-42.55 c 28.17,9.53 58.79,-5.81 68.41,-34.25 9.63,-28.44 -2.49,-60.1 -30.66,-69.62 -28.17,-9.53 -57.17,5.06 -66.79,33.5 -9.62,28.45 0.87,60.84 29.04,70.37 z m -48.96,3.18 c -6.34,1.33 -9.96,1.08 -16.58,1.85 -6.63,0.76 -2.77,5.75 0.13,6.93 6.3,2.57 14.89,5.21 24.87,3.13 7.33,-1.52 20.7,-6.64 17.94,-13.85 -2.88,-7.5 -15.83,-0.28 -26.36,1.94 z m 99.02,-451.47 c -0.66,5.59 -1.51,14.8 3.24,16.27 6.13,-3.25 12.99,-12.61 17.9,-23.46 7.65,-16.95 10.86,-38.5 -2.56,-44.45 -24.11,-10.7 -43.35,20.77 -47.42,40.56 -3.45,16.81 7.14,20.78 7.14,20.78 0,0 5.52,-12.82 10.07,-20.58 5.43,-9.27 13.03,-19.08 18.11,-17.44 5.08,1.64 -4.74,13.62 -6.48,28.32 z m -112.37,35.69 c 1.01,7.62 7.71,8.8 7.71,8.8 0,0 4.1,-21.66 9.63,-34.39 5.53,-12.72 18.89,-27.44 25.06,-24.49 6.17,2.96 -1.43,10.21 -6.2,25.74 -5.72,18.65 -2.06,35.35 -2.06,35.35 0,0 4.74,1.5 7.28,-5.63 12.85,-35.93 17.56,-33.57 26.2,-50.85 8.43,-16.86 3.54,-34.77 -16.35,-38.41 -49.04,-8.96 -52.87,71.78 -51.27,83.88 z m -11.55,-184.48 c 0,0 16.66,-38.6 26.73,-34.37 5.85,2.45 -13.53,21 -13.85,42.49 2.23,4.13 7.41,3.1 7.41,3.1 0,0 5.2,-7.76 12.53,-13.37 10.5,-8.04 36.99,-56.12 8.15,-67.95 -31.03,-12.72 -51.24,35.01 -50.36,52.6 0.87,17.58 9.39,17.5 9.39,17.5 z m -66.29,79.85 c 2.14,48.03 17.7,63.21 17.7,63.21 0,0 3.5,-4.53 3.09,-9.33 -0.28,-3.5 -5.94,-25.36 -6.07,-37.07 -0.13,-11.72 3.63,-15.24 7.79,-13.55 4.17,1.69 -3.36,16.41 6.51,17.27 6.67,0.58 9.56,-16.75 9.8,-33.79 0.27,-18.35 -4.02,-25.41 -4.02,-25.41 6.78,-5.51 14.86,5.23 16.52,23.51 1.52,16.65 -0.85,27.1 3.39,27.1 3.91,0 3.74,-6.83 3.59,-15.05 -0.13,-6.47 -0.53,-13.96 1.7,-15.44 3.74,-2.49 9.57,14.03 9.57,28.67 0,11.71 -4.02,23.96 -4.31,27.47 -0.4,4.79 1.51,8.87 1.51,8.87 0,0 13.2,1.57 15.34,-46.46 1.37,-30.63 -13.4,-68.33 -41.05,-68.33 -27.66,0 -42.43,37.7 -41.06,68.33 z m -17.01,-82 c 7.33,5.61 12.53,13.37 12.53,13.37 0,0 5.17,1.03 7.4,-3.1 -0.31,-21.49 -19.69,-40.04 -13.84,-42.49 10.06,-4.23 26.73,34.37 26.73,34.37 0,0 8.52,0.08 9.39,-17.5 0.88,-17.59 -19.33,-65.32 -50.37,-52.6 -28.83,11.83 -2.34,59.91 8.16,67.95 z m 19.22,326.14 c 3.59,7.35 8.84,2.7 8.84,2.7 0,0 -4.76,-17.3 -2.71,-36.2 1.36,-12.55 4.8,-20.39 9.35,-20.12 5.14,0.31 4.81,9.79 4.96,19.34 0.06,3.67 5.16,5.44 5.93,1.88 2.78,-12.76 -3.46,-35.33 2.94,-58.38 2.48,-8.96 12.54,-19.09 16.2,-14.54 1.59,1.98 1.36,5.2 0.53,8.86 -0.77,3.43 -2.02,7.27 -2.85,10.84 -5.89,25.45 2.59,60.64 7.83,74.86 1.26,3.42 6.31,-4.19 5.98,-11.44 -0.34,-7.78 -1.86,-25.21 2.04,-44.3 1.75,-8.58 8.65,-3.51 12.24,11.06 5.38,21.78 -2.43,58.14 -2.43,58.14 0,0 5.24,4.65 8.85,-2.7 3.59,-7.35 14.39,-60.43 6,-94.62 -5.52,-22.45 -16.15,-44.35 -44.85,-44.35 h -0.01 c -28.7,0 -39.33,21.9 -44.84,44.35 -8.4,34.19 2.39,87.27 6,94.62 z m 22.55,275.48 c 2.21,-1.19 1.63,-3.2 0.18,-5.23 -7.85,-10.96 -18.6,-23.75 -28.49,-16.8 -3.28,2.31 -0.94,9.53 10.31,16.26 3.63,2.18 13.57,8.16 18,5.77 z m 34.87,64.78 c -1.52,-9.16 -3.86,-11.66 -5.68,-13.9 -1.15,-1.39 -4.44,0.11 -3.81,2.14 0.64,2.04 2.1,14.93 -9.08,14.93 -11.2,0 -9.74,-12.89 -9.11,-14.93 0.65,-2.03 -2.65,-3.53 -3.8,-2.14 -1.83,2.24 -4.15,4.74 -5.68,13.9 -1.53,9.17 6.1,20.78 18.59,20.78 12.47,0 20.1,-11.61 18.57,-20.78 z m -2.47,-70.01 c -1.46,2.03 -2.03,4.04 0.17,5.23 4.44,2.39 14.37,-3.59 18,-5.77 11.26,-6.73 13.6,-13.95 10.32,-16.26 -9.89,-6.95 -20.64,5.84 -28.49,16.8 z m -31.74,-22.06 c 0.14,2.15 3.52,23.19 15.63,23.19 12.1,0 15.48,-21.04 15.63,-23.19 0.28,-4.33 -3.05,-7.73 -7.05,-6.11 -6.26,2.53 -1.89,16.05 -8.58,16.05 -6.69,0 -2.33,-13.52 -8.58,-16.05 -4,-1.62 -7.33,1.78 -7.05,6.11 z m 5.19,-53.56 c 2.55,-10.73 2.64,-29.46 2.64,-62.56 0,-21.05 5.08,-38.26 7.8,-38.26 2.72,0 7.8,17.21 7.8,38.26 0,33.1 0.08,51.83 2.64,62.56 0.51,2.16 11.32,0.82 22.83,-8.63 11.51,-9.46 5.14,-50.16 1.03,-69.28 -3.53,-16.41 -15.46,-51.72 -34.3,-64.84 -18.84,13.12 -30.77,48.43 -34.29,64.84 -4.12,19.12 -10.49,59.82 1.02,69.28 11.51,9.45 22.31,10.79 22.83,8.63 z m -77.62,-418.02 c -19.88,3.64 -24.78,21.55 -16.35,38.41 8.64,17.28 13.36,14.92 26.2,50.85 2.55,7.13 7.28,5.63 7.28,5.63 0,0 3.66,-16.7 -2.06,-35.35 -4.76,-15.53 -12.37,-22.78 -6.2,-25.74 6.17,-2.95 19.54,11.77 25.07,24.49 5.52,12.73 9.62,34.39 9.62,34.39 0,0 6.71,-1.18 7.71,-8.8 1.6,-12.1 -2.22,-92.84 -51.27,-83.88 z m -67.58,19.87 c 5.08,-1.64 12.68,8.17 18.11,17.44 4.55,7.76 10.07,20.58 10.07,20.58 0,0 10.59,-3.97 7.13,-20.78 -4.06,-19.79 -23.31,-51.26 -47.41,-40.56 -13.42,5.95 -10.21,27.5 -2.56,44.45 4.91,10.85 11.77,20.21 17.9,23.46 4.75,-1.47 3.9,-10.68 3.24,-16.27 -1.74,-14.7 -11.56,-26.68 -6.48,-28.32 z m 54.95,-103.51 c -18.2,-19.36 -36.6,-24.56 -47.15,-17.42 -18.8,12.72 -12.81,33.16 14.93,63.32 15.9,17.28 25.3,26.82 25.3,26.82 0,0 3.18,1.25 4.16,-1.25 0,0 -7.55,-26.72 -11,-32.11 -3.46,-5.39 -9.6,-16.75 -9.12,-18.1 0.48,-1.33 3.69,-4.28 6.88,-1.24 3.18,3.04 10.19,16.2 15.03,20.76 4.54,4.28 13.57,17.91 18.55,20.62 0,0 1.65,0 2.12,-0.27 3.23,-5.25 0.9,-39.22 -19.7,-61.13 z m -15.88,-195.39 c 0,-13.79 -3.87,-22.3 -9.94,-22.3 -6.07,0 -9.93,8.75 -9.93,22.19 0,15.4 5.11,59.56 6.95,70.02 h 2.98 c 0,0 9.94,-56.12 9.94,-69.91 z m -23.76,100.04 c -9.44,9.44 -5.73,25.04 3.59,37.3 8.55,11.22 21.91,19.84 24.44,21.53 5.29,3.52 6.48,1.49 7.5,0.39 0,0 -22.82,-33.79 -15.85,-39 6.97,-5.21 26.93,25.86 26.93,25.86 2.42,-2.72 2.71,-4.41 0.95,-9.54 -0.5,-1.47 -5.42,-14.59 -14.4,-25.59 -9.68,-11.86 -23.78,-20.33 -33.16,-10.95 z m 241.02,95.35 c -20.6,21.91 -22.94,55.88 -19.7,61.13 0.46,0.27 2.11,0.27 2.11,0.27 4.99,-2.71 14.02,-16.34 18.56,-20.62 4.84,-4.56 11.85,-17.72 15.02,-20.76 3.19,-3.04 6.41,-0.09 6.89,1.24 0.48,1.35 -5.66,12.71 -9.12,18.1 -3.45,5.39 -11,32.11 -11,32.11 0.98,2.5 4.15,1.25 4.15,1.25 0,0 9.4,-9.54 25.31,-26.82 27.74,-30.16 33.73,-50.6 14.92,-63.32 -10.54,-7.14 -28.94,-1.94 -47.14,17.42 z m 35.75,-195.5 c 0,-13.44 -3.86,-22.19 -9.93,-22.19 -6.08,0 -9.94,8.51 -9.94,22.3 0,13.79 9.94,69.91 9.94,69.91 h 2.98 c 1.84,-10.46 6.95,-54.62 6.95,-70.02 z m -29.28,111.1 c -8.98,11 -13.89,24.12 -14.39,25.59 -1.76,5.13 -1.47,6.82 0.95,9.54 0,0 19.96,-31.07 26.93,-25.86 6.97,5.21 -15.85,39 -15.85,39 1.02,1.1 2.21,3.13 7.5,-0.39 2.53,-1.69 15.89,-10.31 24.44,-21.53 9.32,-12.26 13.03,-27.86 3.59,-37.3 -9.38,-9.38 -23.48,-0.91 -33.17,10.95 z m 107.1,393.35 c 0.19,4.93 4.55,1.32 5.88,-3.42 1.33,-4.75 4.87,-16.03 16.66,-30.51 16.71,-20.5 53.64,-35.19 53.64,-35.19 0,0 0.99,-17.62 -1.85,-23.51 -2.85,-5.89 -8.24,-3.2 -8.24,-3.2 0,0 -26.32,8.66 -40.18,21.94 -24.63,23.62 -26.1,68.95 -25.91,73.89 z m 22.87,-127.92 c -0.61,-37.47 -29.74,-327.21 -70.29,-424.2 -1.54,-3.71 -14.92,13.95 -12.38,26.99 0.91,4.72 53.76,292.49 40.95,479.79 -0.09,1.35 4.83,-2.58 5.01,-3.04 18.44,-45.27 36.96,-64.38 36.71,-79.54 z m -62.5,179.98 c 1.98,3.72 6.97,0.54 9.19,-1.62 4.88,-4.77 31.18,-48.78 8.72,-58.94 -23.15,-10.47 -42.92,34.86 -45.25,48 -1.87,10.59 5.47,8.14 5.47,8.14 0,0 17.09,-27.55 23.61,-24.53 6.37,2.96 -1.74,28.95 -1.74,28.95 z m -28.76,-71.52 c -2.69,8.7 -1.04,17.09 -1.04,17.09 2.55,2.25 10.95,-8.99 10.95,-8.99 0,0 1.04,-8.55 5.09,-15.3 4.05,-6.75 16.64,-26.24 6.45,-32.54 -10.2,-6.3 -22.95,-3.11 -34.94,17.84 -12.44,21.75 -12.3,53.84 -11.1,57.14 1.2,3.3 4.5,2.1 5.1,-1.65 0.6,-3.75 3.3,-17.4 11.1,-33.74 7.8,-16.35 12.15,-13.2 12.15,-13.2 0,0 -1.05,4.65 -3.76,13.35 z m -24.98,-59.09 c -4.35,12.15 -4.06,18.9 -4.06,18.9 0,0 4.06,3.15 8.1,-4.2 4.05,-7.35 15.15,-17.4 30.75,-28.5 12.39,-8.81 16.8,-31.04 1.5,-43.18 -9.69,-7.69 -28.8,-6.15 -47.54,13.64 -18.75,19.8 -25.35,51.29 -25.49,56.69 -0.15,5.4 2.99,4.95 2.99,4.95 0,0 11.85,-16.5 21.75,-27.15 9.89,-10.64 15.3,-15.74 22.49,-15.59 7.2,0.15 -6.15,12.3 -10.49,24.44 z m -43.99,110.46 c 0,0 2.65,0.42 6.58,-2.31 5.98,-4.17 14.66,-13.53 19.11,-26.2 6.75,-19.2 -0.09,-27.83 -7.8,-31.49 -11.7,-5.55 -44.58,11.32 -48.44,57.58 -0.44,5.4 5.4,5.36 5.4,5.36 0,0 15.56,-40.65 30.6,-35.33 7.19,2.55 -5.45,32.39 -5.45,32.39 z m -159.23,-32.39 c 15.03,-5.32 30.62,35.34 30.62,35.34 0,0 5.82,0.03 5.37,-5.37 -3.86,-46.26 -36.75,-63.13 -48.44,-57.58 -7.72,3.66 -14.55,12.29 -7.8,31.49 4.45,12.67 13.13,22.03 19.12,26.2 3.92,2.73 6.57,2.31 6.57,2.31 0,0 -12.64,-29.84 -5.44,-32.39 z m -49.04,-102.51 c 7.2,-0.15 12.59,4.95 22.49,15.6 9.9,10.64 21.75,27.14 21.75,27.14 0,0 3.15,0.45 2.99,-4.95 -0.14,-5.4 -6.74,-36.89 -25.49,-56.69 -18.74,-19.79 -37.85,-21.33 -47.54,-13.64 -15.3,12.14 -10.89,34.37 1.51,43.18 15.59,11.1 26.69,21.15 30.74,28.5 4.05,7.35 8.09,4.2 8.09,4.2 0,0 0.31,-6.75 -4.04,-18.9 -4.35,-12.14 -17.7,-24.29 -10.5,-24.44 z m -6.09,83.38 c 7.8,16.34 10.49,29.99 11.1,33.74 0.59,3.75 3.89,4.95 5.09,1.65 1.2,-3.3 1.35,-35.39 -11.1,-57.14 -11.99,-20.95 -24.74,-24.14 -34.94,-17.84 -10.2,6.3 2.4,25.79 6.45,32.54 4.05,6.75 5.1,15.3 5.1,15.3 0,0 8.4,11.24 10.94,8.99 0,0 1.65,-8.39 -1.04,-17.09 -2.7,-8.7 -3.75,-13.35 -3.75,-13.35 0,0 4.35,-3.15 12.15,13.2 z m -38.9,42.72 c 6.52,-3.02 23.61,24.53 23.61,24.53 0,0 7.34,2.45 5.47,-8.14 -2.33,-13.14 -22.1,-58.47 -45.24,-48 -22.48,10.16 3.83,54.17 8.72,58.94 2.21,2.16 7.21,5.34 9.18,1.62 0,0 -8.11,-25.99 -1.74,-28.95 z m -107.13,-197.46 c 6.02,6.31 14.81,21.24 18.18,22.17 3.38,0.93 2.59,-1.89 2.59,-1.89 2.16,-23.52 21.7,-251.56 74.49,-405.15 -4.32,-3.19 -9,-2.32 -12.41,0.35 -54.58,123.94 -88.88,378.2 -82.85,384.52 z m -28.68,46.56 c -3.93,-6.01 -12.95,-13.18 -13.18,-24.51 -0.24,-11.34 15.85,-20.67 18.92,-25.84 8.08,-86 52.64,-322.02 94.09,-397.44 -15.27,-21.96 -17.26,-41.04 -11.95,-74.66 -6.79,-3.39 -13.36,-7.35 -19.62,-11.96 l -34.4,-25.309 c 20.1,-6.133 39.15,-15.562 56.47,-28.301 l 147.04,-108.218 c 22.65,13.718 48.36,25.859 75.13,25.859 31.23,0 51.45,-13.73 79.77,-32.84 71.48,-48.23 71.48,-48.23 71.48,-48.23 0,0 34.58,22.82 34.63,22.859 l -210.14,150.719 c 2.71,5.84 7.06,16.902 7.3,28.471 -9.19,19.65 -11.58,49.62 -8.43,54.17 1.79,2.59 10.66,-4.62 17.74,-15.74 5.67,-8.9 7.32,-8.56 7.32,-8.56 0,0 1.66,-0.34 7.33,8.56 7.08,11.12 15.95,18.33 17.74,15.74 3.14,-4.55 0.75,-34.52 -8.43,-54.17 0.24,-11.58 4.78,-24.69 7.51,-29.452 l 87.09,-64.089 20.68,-15.368 c 0,0 67.2,53.047 89.94,70.289 17.12,12.989 36.36,22.168 56.46,28.301 l -34.4,25.309 c -6.26,4.61 -12.84,8.57 -19.62,11.96 5.31,33.62 3.32,52.7 -11.96,74.66 41.45,75.42 86.02,311.44 94.1,397.44 3.07,5.17 19.15,14.5 18.91,25.84 -0.22,11.33 -9.24,18.5 -13.18,24.51 -3.93,6.02 -2.77,9.48 -3.93,26.83 -1.16,17.35 0.93,35.85 0.93,35.85 0,0 13.42,16.88 11.09,35.15 -2.3,18.27 -19.19,30.99 -19.19,30.99 0,0 -5.55,35.85 -11.56,81.64 -6.02,45.79 -15.5,80.48 -15.5,80.48 0,0 5.12,29.96 2.55,63.37 -3.32,43.15 -27.13,82.93 -25.38,98.73 3.04,27.3 14.41,24.91 20.76,71.95 5.34,39.58 -17.81,66.61 -17.81,66.61 0,0 -6.95,-33.53 -23.36,-40.01 -16.43,-6.48 -23.13,-0.7 -41.64,-1.85 -9,-0.56 -23.58,-1.62 -42.78,-11.33 -31.68,18.5 -41.4,16.88 -68.92,15.49 -27.52,-1.39 -29.37,0.46 -53.19,6.25 -2.91,0.7 -14.4,3.5 -24.24,3.21 -9.83,0.29 -21.33,-2.51 -24.24,-3.21 -23.81,-5.79 -25.66,-7.64 -53.18,-6.25 -27.53,1.39 -37.24,3.01 -68.92,-15.49 -19.2,9.71 -33.78,10.77 -42.79,11.33 -18.5,1.15 -25.21,-4.63 -41.63,1.85 -16.42,6.48 -23.36,40.01 -23.36,40.01 0,0 -23.15,-27.03 -17.81,-66.61 6.35,-47.04 17.72,-44.65 20.75,-71.95 1.76,-15.8 -22.06,-55.58 -25.37,-98.73 -2.57,-33.41 2.55,-63.37 2.55,-63.37 0,0 -9.49,-34.69 -15.51,-80.48 -6.01,-45.79 -11.56,-81.64 -11.56,-81.64 0,0 -16.88,-12.72 -19.19,-30.99 -2.32,-18.27 11.1,-35.15 11.1,-35.15 0,0 2.08,-18.5 0.92,-35.85 -1.15,-17.35 0,-20.81 -3.93,-26.83 z m 99.04,503.57 c 26.25,0.16 32.53,-4.77 39.04,-10.73 1.07,-0.96 4.61,3.64 1.56,7.91 -3.86,5.41 -8.63,12.92 -11.54,14.36 -6.32,3.13 -14.8,3.78 -21.61,3.78 -12.29,0 -19.65,1.32 -28.44,4.59 -5.65,2.1 -8.97,4.4 -13.29,8.31 -2.37,-0.34 -2.32,-3.75 -1.3,-5.72 0.73,-1.41 9.66,-22.65 35.58,-22.5 z m 349.19,-190.36 c 17.6,7.84 23.19,29.72 14.9,48.33 -3.36,7.53 -10.44,10.77 -8.75,6.99 6.81,-15.29 2.22,-33.27 -12.24,-39.71 -14.47,-6.45 -30.81,0.38 -37.62,15.67 -3.08,6.92 -7.06,-1 -2.07,-12.21 8.29,-18.61 28.18,-26.92 45.78,-19.07 z m 38.04,179.63 c 6.51,5.96 12.79,10.89 39.04,10.73 25.92,-0.15 34.86,21.09 35.58,22.5 1.03,1.97 1.07,5.38 -1.3,5.72 -4.32,-3.91 -7.64,-6.21 -13.29,-8.31 -8.79,-3.27 -16.14,-4.59 -28.44,-4.59 -6.81,0 -15.28,-0.65 -21.61,-3.78 -2.9,-1.44 -7.67,-8.95 -11.54,-14.36 -3.05,-4.27 0.49,-8.87 1.56,-7.91 z M 882.52,865.012 C 916.48,832 953.563,802.25 992.988,776.02 c 0.34,0.25 5.102,3.75 71.692,52.761 25.15,18.508 54.96,28.297 86.18,28.297 31.23,0 61.03,-9.789 86.18,-28.297 l 29.18,-21.472 51.75,38.082 c 0,0 0,0 -142.88,97.129 -57.56,39.128 -132.43,41.261 -188.481,0 L 880.328,867.09 c 0.723,-0.699 1.469,-1.379 2.192,-2.078 z m 398.89,1007.198 c 17.6,-7.85 37.49,0.46 45.78,19.07 5,11.21 1.01,19.13 -2.07,12.21 -6.81,-15.29 -23.15,-22.12 -37.61,-15.67 -14.47,6.44 -19.06,24.42 -12.25,39.71 1.69,3.78 -5.39,0.54 -8.75,-6.99 -8.29,-18.61 -2.7,-40.49 14.9,-48.33 z M 1440.84,648.809 c -14.65,10.113 -62.71,43.3 -220.77,152.429 -42.06,29.043 -95.85,28.301 -138.42,0 -58.09,-38.609 -62.5,-41.539 -62.84,-41.769 126.05,-76.59 274.42,-115.969 422.03,-110.66 z m -92.26,183.562 -58.21,-42.84 c 37.73,-27.781 153.14,-112.961 189.49,-138.582 69.48,5.539 137.59,20.539 202.96,44.301 -15.07,10.309 -60.74,41.551 -199.4,136.379 -42.19,28.859 -93.67,31.043 -134.84,0.742 z m 222.06,52.07 54.39,-40.402 c 18.45,8.231 38.41,12.582 59.04,12.582 31.23,0 53.13,-12.762 81.46,-31.242 63.63,-41.488 74.27,-48.418 76.05,-49.59 40.44,26.789 78.15,57.301 112.74,91.031 l -113.11,75.239 c -56.05,41.261 -131.51,40 -188.48,0.011 -82.09,-57.629 -82.09,-57.629 -82.09,-57.629 z m 44.22,-83.203 -18.12,-14.078 c 9.86,-7.25 104.63,-77.012 111.34,-81.949 38.95,15.539 76.33,34.937 111.79,56.66 -7.53,4.5 -27.26,16.277 -79.1,47.231 -43.89,26.199 -84.74,22.437 -125.91,-7.864 z M 1417.33,2528.52 c -612.717,0 -1111.197,-498.48 -1111.197,-1111.2 0,-612.711 498.48,-1111.179 1111.197,-1111.179 612.71,0 1111.18,498.468 1111.18,1111.179 0,612.72 -498.47,1111.2 -1111.18,1111.2 z m 0,-2245.051 c -625.217,0 -1133.865,508.652 -1133.865,1133.851 0,625.22 508.648,1133.86 1133.865,1133.86 625.2,0 1133.85,-508.64 1133.85,-1133.86 0,-625.199 -508.65,-1133.851 -1133.85,-1133.851 z m 810.69,1260.091 c -4.13,28.38 2.05,47.55 4.83,54.51 6.83,5.13 30.18,13.03 45.95,16.01 2.61,-1.34 4.03,-6.31 2.2,-7.96 -16.49,-7.57 -47.57,-26.24 -41.87,-65.42 4.14,-28.38 24.73,-39.51 44.99,-36.56 14.86,2.16 30.97,7.61 43.25,34.58 l 16.27,35.14 c 8.69,18.5 25.08,40.9 52.78,44.93 32.09,4.67 61.74,-16.53 68.13,-60.43 1.53,-10.48 1.27,-22.93 0.18,-32.06 -0.71,-4.58 -0.7,-9.41 -0.3,-12.11 -7.67,-4.22 -26.13,-10.01 -40.32,-12.08 -2.23,1.05 -4.03,6.31 -2.25,8.29 15.58,6.75 36.2,19.07 31.48,51.49 -4.82,33.11 -27.81,37.01 -43.35,34.74 -19.59,-2.85 -31.41,-21.13 -37.35,-34.76 l -12.96,-29.49 c -10.07,-23.19 -26.61,-46.99 -58.7,-51.66 -37.15,-5.41 -66.56,18.94 -72.96,62.84 z m 15.66,313.57 c -8.25,-0.98 -8.41,-1.44 -4.23,-10.03 l 18.34,-37.74 c 4.33,-8.9 5.85,-8.92 12.79,-2.13 l 41.97,40.87 c 6.17,6.04 13.11,12.82 15.9,16.45 l -0.3,0.62 c -1.98,0.18 -10.84,-0.33 -21.68,-1.43 z m 2.22,-74.03 c 5.7,5.42 6.03,7.1 1.56,16.3 l -22.52,46.34 c -3.73,7.67 -5.54,9.06 -13.03,8.08 l -37.44,-4.92 c -16.05,-2.11 -25.38,-3.99 -28.75,-5.63 -3.68,-1.79 -4.78,-4.21 -1.81,-11.87 l 4,-10.58 c -0.49,-2.89 -5.4,-5.28 -7.97,-3.13 -3.26,8.29 -7.89,17.8 -14.59,32.37 -4.92,10.12 -10.9,20.88 -15.23,29.01 0.33,2.45 4.94,5.45 7.37,4.34 l 5.84,-9.67 c 4.19,-7.07 10.85,-12.18 23.98,-11.1 16.8,1.33 40.92,2.43 81.55,6.24 l 98.06,8.97 c 13.13,1.07 19.86,2.06 24.32,5.37 5.73,-6.32 13.79,-8.85 19.42,-10.28 0.89,-1.85 1.32,-4.3 -0.53,-5.96 -11.56,-10.54 -23.29,-22.31 -34.56,-33.48 l -102.92,-101.98 c -22.06,-21.72 -24.73,-27.95 -19.85,-41.89 l 3.11,-8.73 c -0.49,-2.9 -5.7,-4.67 -7.68,-3.77 -5.5,12.88 -10.41,23.77 -17.12,37.59 -7.16,14.73 -13.44,26.09 -18.07,34.87 0.04,3.05 4.8,5.74 7.37,4.34 l 5.25,-8.46 c 3.75,-6.14 7.67,-9.54 10.74,-8.05 3.38,1.64 8.15,5.86 14.33,11.89 z m -178.6,223.11 c -26.19,-24.46 -29.46,-28.45 -17.2,-44.07 l 6.7,-8.68 c 0.41,-2.43 -4.55,-6.12 -6.7,-5.33 -12.77,14.67 -20.44,23.39 -29.76,33.37 -9.31,9.96 -17.71,18.46 -33.12,33.96 -0.64,2.2 3.13,6.65 6.24,5.82 l 9.13,-8.28 c 14.52,-13.05 19.42,-10.8 45.61,13.66 l 111.46,104.1 c 7.73,7.22 7.98,7.46 0.99,14.94 l -12.81,13.71 c -10.01,10.73 -23.32,23.97 -34.88,24.85 -11.07,0.86 -18.89,-1.78 -27.69,-4.85 -3.36,0.6 -5.37,5.25 -4.31,8.11 14.95,6.5 34.41,17.66 46.01,25.23 1.2,-0.29 4.47,-3.29 4.42,-4.73 -6.58,-8.96 1.36,-16.95 12.07,-28.43 l 94.33,-100.98 c 12.57,-13.46 15.17,-15.24 25.14,-12.93 1.67,-0.78 3.98,-3.76 3.45,-5.19 -12.79,-6.81 -34.62,-23.92 -41.4,-31.66 -2.92,-0.87 -6.88,3.38 -6.55,6.03 5.54,6.57 13.13,16.93 12.38,23.22 -1.12,9.71 -7.98,21.04 -20.79,34.76 l -16.53,17.7 c -6.99,7.48 -7,7 -15.23,-0.68 z m -135.06,267.58 c 19.1,30.72 21.58,36 5.38,48.08 l -6.88,5.09 c -1.02,2.23 2.8,7.09 5.08,6.84 14.13,-9.58 23.81,-15.99 35.98,-23.57 11.59,-7.2 21.62,-13.03 36.47,-21.44 1.2,-1.94 -1.47,-7.52 -3.93,-7.6 l -7.6,3.92 c -18,9.18 -21.64,4.62 -40.74,-26.1 l -64.14,-103.16 c -19.1,-30.71 -21.04,-35.13 -5.21,-47.8 l 6.71,-5.37 c 1.02,-2.23 -2.81,-7.09 -5.08,-6.88 -14.13,9.59 -23.81,16 -35.4,23.22 -12.17,7.56 -22.2,13.4 -37.05,21.83 -1.2,1.95 1.1,6.94 3.92,7.6 l 7.79,-3.64 c 18.35,-8.6 21.46,-4.9 40.56,25.82 z m -274.44,-71.92 c -27.34,8.62 -41.92,22.52 -46.97,28.06 -1.65,8.39 1.41,32.83 5.58,48.33 2.35,1.77 7.44,0.87 8.13,-1.49 -0.36,-18.13 2.92,-54.24 40.67,-66.16 27.34,-8.63 46.33,5.07 52.49,24.6 4.52,14.32 6.62,31.19 -12.31,53.98 l -24.55,29.94 c -12.89,15.87 -25.91,40.37 -17.49,67.06 9.76,30.92 41.75,48.38 84.06,35.03 10.09,-3.18 21.19,-8.83 28.93,-13.78 3.82,-2.64 8.18,-4.72 10.78,-5.55 0.46,-8.74 -2.36,-27.88 -6.67,-41.55 -1.92,-1.54 -7.44,-0.88 -8.45,1.59 0.7,16.96 -1.41,40.89 -32.65,50.75 -31.9,10.06 -45.41,-8.94 -50.13,-23.91 -5.96,-18.88 5.35,-37.48 15.03,-48.77 l 20.9,-24.48 c 16.5,-19.16 30.72,-44.41 20.96,-75.32 -11.29,-35.81 -46.01,-51.68 -88.31,-38.33 z m -269.95,166.66 c -0.1,-6.15 -0.16,-9.9 0.84,-11.28 1.01,-1.04 6.11,-1.81 23.51,-2.08 12.28,-0.21 25.27,0.95 35.29,8.29 9.32,7.02 17.36,18.83 17.74,42.02 0.43,26.95 -15.86,52.81 -53.73,53.43 -21.15,0.34 -22.2,-1.01 -22.35,-10.56 z m -27.18,49.23 c 0.53,32.41 -0.4,38.22 -14.36,40.15 l -10.89,1.55 c -2.36,1.74 -2.28,7.2 0.47,8.52 19.14,1.4 42.69,2.04 76.12,1.49 21.15,-0.34 41.25,-2.37 56.8,-11.15 16.24,-8.8 27.93,-24.34 27.54,-48.22 -0.52,-32.41 -26.4,-49.73 -43.56,-56.28 -1.74,-2.02 -0.09,-5.46 1.57,-8.22 26.58,-44.44 44.21,-72.03 67.09,-91.84 5.72,-5.22 14.19,-9.11 23.39,-9.94 1.69,-0.71 1.99,-3.44 0.26,-4.78 -3.08,-0.97 -8.55,-1.57 -15.04,-1.47 -28.99,0.48 -46.25,9.29 -69.91,44.13 -8.67,12.77 -22.27,36.53 -32.6,52.06 -4.99,7.58 -10.4,11.09 -24.04,11.3 -15.35,0.26 -16.04,-0.08 -16.15,-7.24 l -0.7,-42.98 c -0.58,-35.82 0.03,-39.92 19.77,-42.97 l 7.15,-1.14 c 2.02,-1.75 1.24,-7.53 -0.82,-8.52 -15.34,0.93 -26.93,1.46 -40.58,1.68 -14.33,0.24 -26.61,0.09 -42.66,-0.34 -2.03,1.07 -2.62,6.19 -0.54,8.54 l 8.55,0.89 c 19.82,2.07 20.58,6.49 21.16,42.32 z m -283.53,-58.37 c -10.16,34 -12.28,38.71 -32.25,35.24 l -5.42,-0.9 c -2.36,0.71 -3.46,6.79 -1.8,8.37 14.26,3.54 25.48,6.53 38.88,10.54 l 61.48,18.34 c 20.92,6.25 40.22,12.01 43.85,14.16 3.62,-4.96 12.61,-27.93 18.21,-41.92 -0.72,-2.35 -5.76,-4.58 -7.98,-3.1 -9.49,13.9 -15.85,24.47 -34.12,23.64 -7.36,-0.41 -17.92,-3.21 -32.3,-7.5 l -23.55,-7.03 c -9.81,-2.93 -9.61,-3.58 -5.9,-16.01 l 19.52,-65.4 c 2.74,-9.16 3.71,-8.86 13.52,-5.93 l 18.97,5.66 c 13.73,4.1 23.68,7.78 27.21,10.26 3.53,2.48 5.24,5.13 4.43,13.78 l -1.39,14.19 c 1.05,2.45 6.61,4.11 8.6,2.19 2.34,-7.84 4.84,-20.99 8.56,-33.41 3.51,-11.77 8.53,-23.81 10.67,-30.98 -0.62,-2.67 -6.18,-4.34 -8.4,-2.86 l -6.75,11.87 c -3.06,5.5 -6.82,9.71 -13.85,9.4 -4.97,-0.06 -12.91,-2.08 -25.66,-5.88 l -18.97,-5.66 c -9.81,-2.93 -10.69,-3.55 -8.15,-12.06 l 13.76,-46.1 c 5.18,-17.33 9.48,-28.16 16.37,-32.15 5.09,-2.76 13.03,-4.3 41.81,4.29 25.18,7.52 34.27,11.66 40.39,17.4 4.91,5.03 10.32,19.11 13.75,38.65 1.8,2.32 6.67,2.71 8.85,0.15 1.13,-12.12 0.47,-39.74 -1.15,-49.84 -29.62,-8.13 -58.82,-16.5 -87.92,-25.18 l -29.43,-8.79 c -14.06,-4.2 -25.08,-7.84 -44.17,-14.26 -2.26,0.4 -4.48,5.44 -3.1,7.98 l 10.5,4.2 c 18.15,7.21 18.32,12.6 8.07,46.93 z M 808.063,2233.02 c -16.836,11.97 -24.989,15.31 -38.313,8.92 l -5.559,-2.69 c -3.117,0.46 -5.375,4.68 -3.976,7.62 8.738,4.7 18.156,10.24 30.57,18.06 12.707,8.01 22.629,14.68 34.391,22.85 2.75,0.12 6.054,-3.85 5.125,-6.85 l -3.965,-3.31 c -10.059,-8.35 -11.281,-11.55 -10.109,-14.04 2.394,-2.52 17.132,-15.02 39.918,-31.32 34.394,-25.12 68.605,-49.94 103.789,-73.75 -3.059,24.69 -9.68,62.07 -12.692,81.56 -4.004,24.91 -11,66.09 -13.922,81.59 -1.511,7.53 -3.222,10.89 -4.496,12.9 -1.273,2.03 -5.621,2.52 -16.453,-2.7 l -5.562,-2.7 c -3.114,0.47 -5.266,5.16 -3.969,7.63 8.445,4.52 19.598,11.14 30.566,18.06 9.532,6.01 18.297,11.95 27.461,18.48 2.75,0.12 5.664,-4.5 5.125,-6.85 l -8.293,-6.04 c -6.566,-4.95 -8.711,-11.14 -8.644,-19.57 0.472,-18.66 3.957,-49.16 9.531,-86.79 l 6.797,-45.33 c 5.195,-33.85 12.742,-75.89 17.48,-94.29 -0.504,-1.12 -1.472,-2.14 -2.629,-2.87 -1.445,-0.91 -3.066,-1.53 -4.879,-1.86 -10.816,10.12 -24.937,20.99 -37.488,30.02 z M 692.68,2105.27 c -25.875,25.28 -30.5,28.85 -45.789,15.63 l -6.45,-5.62 c -2.406,-0.51 -6.328,4.27 -5.628,6.44 12.414,11.73 20.761,19.8 30.777,30.05 9.539,9.76 17.398,18.3 28.832,30.99 2.164,0.75 7.035,-3.06 6.582,-5.48 l -5.469,-6.57 c -12.851,-15.6 -9.176,-20.14 16.699,-45.42 l 86.907,-84.88 c 25.882,-25.27 29.773,-28.13 45.55,-15.39 l 6.696,5.39 c 2.406,0.51 6.328,-4.27 5.629,-6.46 -12.414,-11.73 -20.766,-19.79 -30.301,-29.56 -10.016,-10.25 -17.875,-18.78 -29.309,-31.47 -2.164,-0.74 -6.547,2.58 -6.582,5.48 l 5.231,6.82 c 12.355,16.07 9.414,19.89 -16.461,45.17 z m -3.188,-177.8 c 8.949,-4.97 44.457,-24.67 52.711,-28.08 1.465,-1.59 1.961,-4.21 0.141,-7.5 -7.063,-0.76 -22.305,-3.62 -66.25,-13.19 l -117.192,-25.51 c -13.718,-2.92 -49.445,-9.64 -59.484,-12.26 l -0.336,-0.6 c 2.922,-3.18 9.617,-7.29 18.57,-12.26 l 65.051,-36.09 c 14.024,-7.78 52.981,-29 64.75,-28.9 4.274,-0.03 9.375,4.94 14.11,12.07 l 6.031,8.75 c 3.379,0.47 6.793,-1.82 7.125,-4.75 -8.047,-13.09 -14.141,-23.36 -20.266,-34.4 -6.953,-12.54 -11.125,-20.75 -16.324,-31.53 -2.652,-1.26 -6.996,0.76 -7.793,3.54 l 3.578,8.56 c 2.91,7.36 3.774,13.13 1.316,16.44 -8.425,10.14 -44.996,30.04 -59.316,37.98 l -86.238,47.86 c -8.352,4.63 -14.785,7.81 -25.121,5.35 -6.5,-1.86 -12.563,-7.86 -17.43,-14.52 l -3.41,-4.74 c -2.785,-0.8 -7.262,1.68 -7.129,4.73 7.848,12.03 16.625,27.84 19.605,33.22 2.645,4.77 5.164,10 6.719,14.22 18.531,-2.47 77.457,10.88 93.961,14.6 l 48.582,10.9 c 34.402,7.85 59.223,13.19 81.328,19.27 l 0.332,0.6 c -0.832,2.02 -5.605,4.66 -11.871,8.15 l -63.855,35.42 c -14.024,7.79 -52.981,29.01 -65.078,28.31 -3.68,-0.31 -8.118,-4.08 -16.235,-15.19 l -3.414,-4.74 c -2.945,-1.09 -7.555,1.85 -7.129,4.7 8.215,13.39 14.145,23.37 20.438,34.71 7.117,12.83 11.121,20.75 16.152,31.27 2.82,1.57 6.996,-0.76 7.793,-3.54 l -1.719,-4.51 c -3.804,-10.38 -4.73,-17.67 -3.007,-20.19 7.929,-11.03 45.257,-30.96 58.988,-38.58 z M 479.199,1659.3 c -20.859,3.57 -59.652,9.5 -70.722,5.51 -4.438,-1.67 -7.829,-7.31 -9.938,-15.61 l -2.109,-8.29 c -2.703,-1.62 -6.961,-0.2 -7.961,2.04 2.859,12.67 5.316,25.05 7.562,38.18 2.414,14.12 3.629,23.26 5.032,35.49 2.14,2.41 6.453,1.33 8.187,-0.7 l -0.711,-8.2 c -0.762,-8.52 1.172,-15.42 5.199,-18.19 10.297,-6.61 48.981,-13.22 67.817,-16.44 l 38.008,-6.49 c 29.265,-5.01 59.406,-15.01 76.367,-37.29 13.336,-17.17 17.828,-43.56 13.574,-68.45 -3.969,-23.2 -12.309,-45.66 -29.25,-59.73 -17.848,-15.3 -43.844,-19.51 -83.871,-12.68 l -79.379,13.57 c -34.984,5.98 -40.816,6.29 -45.836,-12.94 l -2.109,-8.29 c -1.688,-1.78 -7.293,-0.14 -7.957,2.06 3.546,16.7 5.836,28.08 8.136,41.54 2.36,13.78 3.918,24.94 6.067,41.54 1.351,1.85 7.187,1.54 8.187,-0.7 l -0.711,-8.2 c -1.652,-19.79 3.953,-21.44 38.934,-27.42 l 72.656,-12.42 c 54.156,-9.25 92.684,1.47 101.481,52.93 8.339,48.78 -26.844,73.83 -77.973,82.56 l -38.68,6.62" style="fill:#231f20;fill-opacity:1;fill-rule:nonzero;stroke:none" id="path12"/>
      <path d="m 545.488,1129.77 c -8.933,-3.29 -9.453,-3.85 -2.82,-19.88 13.262,-32.08 29.297,-46.1 59.285,-35.06 31.27,11.52 34.492,39.16 25.567,63.41 -2.586,7.01 -4.977,11.56 -7.313,13.97 -2.141,2.83 -4.199,3.52 -9.941,1.41 z m -74.019,-27.26 c -11.489,-4.23 -27.524,-10.86 -32.309,-19.51 -5.105,-8.76 -3.172,-18.92 0.344,-28.49 10.461,-28.4 31.211,-45.4 63.113,-33.65 25.219,9.28 49.863,32.85 31.184,83.59 -6.348,17.23 -8.731,17.8 -15.11,15.45 z m 106.824,69.05 c 23.613,8.69 29.199,12.2 25.195,27.03 l -2.804,10.56 c 0.976,3.26 5.879,4.7 8.097,2.62 7.938,-16.64 16.887,-37.99 27.813,-67.66 7.402,-20.1 12.851,-39.83 10.801,-56.89 -1.653,-16.19 -10.528,-31.42 -30.957,-38.94 -22.969,-8.46 -39.708,0.6 -55.696,16.45 -3.183,-1.18 -3.199,-4.08 -2.547,-7.82 3.153,-18.41 -3.398,-49.81 -37.539,-62.379 -37.011,-13.633 -72.004,4.649 -93.152,62.099 -3.41,9.25 -8.203,25.23 -13.149,38.63 -5.164,14.04 -9.792,24.65 -14.46,36.33 0.253,2.26 5.117,4.78 7.734,3.57 l 3.074,-5.39 c 9.102,-15.85 12.844,-15.2 46.348,-2.86 l 121.242,44.65" style="fill:#231f20;fill-opacity:1;fill-rule:nonzero;stroke:none" id="path14"/>
      <path d="m 679.504,936.488 c 28.332,21.172 32.012,24.774 21.902,42.262 l -2.715,4.77 c -0.125,2.449 5.176,5.57 7.219,4.539 8.211,-12.118 14.863,-21.579 23.203,-32.75 l 38.27,-51.207 c 13.027,-17.43 25.031,-33.5 28.293,-36.153 -3.41,-5.097 -21.797,-21.39 -32.969,-31.429 -2.441,-0.129 -6.25,3.82 -5.637,6.402 9.758,13.648 17.453,23.226 10.41,40.039 -2.91,6.738 -9.148,15.648 -18.113,27.641 l -14.648,19.609 c -6.114,8.168 -6.653,7.758 -17,0.027 L 663.242,889.52 c -7.625,-5.692 -7.019,-6.508 -0.906,-14.68 l 11.797,-15.801 c 8.555,-11.437 15.41,-19.48 18.945,-21.93 3.524,-2.449 6.582,-3.14 14.414,0.59 l 12.793,6.172 c 2.656,-0.152 6.113,-4.769 5.02,-7.281 -6.535,-4.891 -17.969,-11.738 -28.321,-19.481 -9.804,-7.32 -19.336,-16.148 -25.332,-20.629 -2.726,-0.332 -6.183,4.29 -5.566,6.879 l 8.789,10.391 c 4.094,4.75 6.746,9.711 4.043,16.18 -1.758,4.621 -6.379,11.359 -14.316,21.992 l -11.805,15.789 c -6.106,8.18 -6.984,8.789 -14.074,3.488 l -38.399,-28.687 c -14.433,-10.793 -23.086,-18.532 -24.465,-26.352 -0.816,-5.711 0.461,-13.672 18.371,-37.64 15.672,-20.969 22.665,-28.051 30.137,-31.809 6.387,-2.859 21.414,-3.09 40.879,0.41 2.781,-0.891 4.813,-5.32 3.176,-8.23 -10.957,-5.219 -37.016,-14.09 -47.016,-16.039 -17.773,24.918 -35.625,49.367 -53.738,73.597 l -18.32,24.52 c -8.75,11.711 -15.95,20.769 -28.496,36.429 -0.411,2.243 3.543,6.051 6.394,5.633 l 7.539,-8.371 c 12.961,-14.512 18.067,-12.82 46.672,8.551 l 98.047,73.277" style="fill:#231f20;fill-opacity:1;fill-rule:nonzero;stroke:none" id="path16"/>
      <path d="m 847.727,683.891 c -3.567,-4.981 -5.735,-8.02 -5.696,-9.719 0.235,-1.422 3.996,-4.942 18.098,-15.024 9.961,-7.109 21.269,-13.507 33.633,-13.16 11.621,0.481 24.902,5.614 38.34,24.434 15.605,21.848 16.875,52.277 -13.84,74.219 -17.149,12.25 -18.77,11.738 -24.293,3.988 z m 5.566,55.769 c 18.777,26.281 21.309,31.57 10.945,41.059 l -8.054,7.429 c -0.95,2.774 2.207,7.192 5.214,6.723 16.473,-9.691 36.161,-22.492 63.274,-41.851 17.144,-12.258 32.476,-25.301 40.269,-41.301 8.34,-16.399 9.133,-35.77 -4.707,-55.129 -18.765,-26.281 -49.793,-25.852 -67.578,-21.5 -2.566,-0.68 -3.164,-4.43 -3.355,-7.629 -3.363,-51.492 -4.504,-84.102 3.043,-113.313 1.742,-7.507 6.476,-15.488 13.554,-21.378 0.989,-1.54 -0.32,-3.95 -2.488,-4.071 -3.086,0.949 -7.91,3.563 -13.164,7.313 -23.516,16.797 -32.687,33.789 -32.363,75.769 0.117,15.367 2.414,42.559 2.722,61.129 0.196,9.051 -2.253,14.981 -13.32,22.879 -12.449,8.902 -13.191,9.012 -17.344,3.211 l -24.902,-34.859 c -20.75,-29.051 -22.566,-32.762 -8.105,-46.442 l 5.226,-4.98 c 0.664,-2.571 -3.242,-6.867 -5.5,-6.52 -12.051,9.449 -21.258,16.442 -32.32,24.352 -11.621,8.301 -21.781,15.129 -35.18,23.871 -1.062,2.008 1.348,6.558 4.387,7.308 l 7.508,-4.109 c 17.433,-9.531 20.558,-6.32 41.3,22.719 l 70.938,99.32" style="fill:#231f20;fill-opacity:1;fill-rule:nonzero;stroke:none" id="path18"/>
      <path d="m 1199.42,418.66 c -4.11,-12.969 -4.62,-21.371 0.49,-25.48 0.67,-1.282 0.05,-3.231 -1.55,-3.789 -3.9,1.23 -10.14,1.781 -16.82,2.109 -18.61,0.891 -43.19,4.379 -60.7,9.922 -38.58,12.207 -70.55,34.078 -87.51,67.269 -13.31,25.61 -15.58,54.5 -6.56,83.039 8.72,27.559 26.62,52.571 53.49,67.61 28.9,15.832 65.82,20.922 114.78,5.441 18.49,-5.851 34.54,-14.851 39.64,-17.89 5.75,-3.243 15.09,-8.692 19.18,-9.27 -3.38,-10.711 -6.77,-28.18 -10,-48.562 -1.8,-2.278 -7.74,-0.77 -9.06,1.8 1.99,37.891 -18.84,56.602 -51.92,67.063 -62.9,19.887 -104.61,-16.141 -119.99,-64.781 -19.69,-62.25 -3.07,-121.36 62.1,-141.969 20.11,-6.363 33.44,-5.942 38.74,-1.563 2.35,1.762 5.81,7.082 9.09,17.461 l 4.11,12.969 c 8.61,27.242 8.25,29.492 -11.14,38.121 l -13.75,6.129 c -2.18,2.121 -0.02,7.852 2.56,8.09 9.2,-3.629 26.93,-9.59 46.07,-15.641 12.64,-4 23.77,-7.16 34.67,-9.879 1.86,-2.007 0.65,-6.968 -2.23,-8.199 l -5.4,0.988 c -14.13,2.684 -17.33,-6.289 -22.55,-22.828 l -5.74,-18.16" style="fill:#231f20;fill-opacity:1;fill-rule:nonzero;stroke:none" id="path20"/>
      <path d="m 1379.13,537.52 c -0.56,35.351 -1.33,40.441 -21.42,42.5 l -5.45,0.589 c -2.07,1.332 -1.49,7.45 0.53,8.512 14.63,-0.441 26.2,-0.601 40.14,-0.371 l 63.91,1.031 c 21.76,0.348 41.81,0.68 45.88,1.758 2.14,-5.75 4.57,-30.187 6.17,-45.129 -1.33,-2.058 -6.75,-2.82 -8.49,-0.808 -5.36,15.886 -8.61,27.738 -26.36,31.867 -7.16,1.59 -18.05,1.761 -33,1.511 l -24.49,-0.39 c -10.19,-0.168 -10.18,-0.852 -9.98,-13.77 l 1.11,-67.992 c 0.15,-9.519 1.17,-9.496 11.36,-9.34 l 19.72,0.321 c 14.29,0.23 24.82,1.082 28.87,2.511 4.06,1.43 6.4,3.5 7.97,12.032 l 2.49,13.976 c 1.67,2.07 7.45,2.16 8.85,-0.219 0.13,-8.16 -1.02,-21.437 -0.81,-34.347 0.2,-12.242 1.77,-25.141 1.89,-32.602 -1.32,-2.398 -7.1,-2.488 -8.84,-0.48 l -3.27,13.211 c -1.46,6.097 -3.92,11.16 -10.74,12.75 -4.79,1.281 -12.95,1.488 -26.21,1.269 l -19.72,-0.32 c -10.2,-0.16 -11.21,-0.52 -11.07,-9.36 l 0.78,-47.929 c 0.29,-18.02 1.49,-29.563 7.03,-35.25 4.14,-4.02 11.34,-7.641 41.26,-7.16 26.17,0.429 36.01,1.949 43.44,5.8 6.05,3.5 15.04,15.547 23.6,33.368 2.35,1.742 7.13,0.8 8.53,-2.239 -2.18,-11.941 -10.26,-38.25 -14.54,-47.5 -30.6,0.18 -60.87,0.032 -91.12,-0.449 l -30.6,-0.5 c -14.61,-0.242 -26.17,-0.762 -46.22,-1.769 -2.05,0.988 -2.82,6.418 -0.82,8.488 l 11.21,1.199 c 19.35,2.012 20.97,7.141 20.39,42.84 l -1.98,122.391" style="fill:#231f20;fill-opacity:1;fill-rule:nonzero;stroke:none" id="path22"/>
      <path d="m 1874.79,528.969 c 3.8,-9.457 18.88,-47.02 23.13,-54.84 0.13,-2.149 -1.13,-4.488 -4.6,-5.879 -5.95,3.84 -19.53,11.211 -59.54,31.422 l -106.68,53.879 c -12.45,6.371 -44.31,23.621 -53.72,27.89 l -0.63,-0.25 c 0.26,-4.293 2.86,-11.679 6.67,-21.14 l 27.63,-68.789 c 5.96,-14.84 22.77,-55.731 31.93,-63.043 3.29,-2.707 10.36,-2.071 18.5,0.472 l 10.17,2.981 c 2.91,-1.762 4.11,-5.672 2.54,-8.141 -14.46,-5.07 -25.63,-9.203 -37.31,-13.89 -13.25,-5.321 -21.64,-9.063 -32.43,-14.129 -2.84,0.687 -4.93,4.976 -3.81,7.629 l 8.15,4.371 c 6.87,3.867 11.16,7.789 11.34,11.898 -0.14,13.129 -15.92,51.5 -22.02,66.649 l -36.64,91.191 c -3.55,8.84 -6.53,15.34 -16.07,19.93 -6.19,2.64 -14.65,1.808 -22.61,-0.289 l -5.61,-1.52 c -2.66,1.129 -4.57,5.859 -2.54,8.129 13.63,4.379 30.35,11.102 36.03,13.391 5.05,2.019 10.28,4.5 14.13,6.789 12.79,-13.559 66.76,-40.25 81.86,-47.739 l 44.43,-22.101 c 31.53,-15.551 54.1,-27.012 75.02,-36.199 l 0.63,0.257 c 0.63,2.082 -1.4,7.133 -4.07,13.762 l -27.13,67.531 c -5.96,14.829 -22.76,55.731 -32.55,62.778 -3.04,2.082 -8.85,1.941 -22.1,-1.547 l -5.63,-1.531 c -2.97,1.007 -4.68,6.187 -2.54,8.14 14.78,5.199 25.63,9.199 37.62,14.02 13.57,5.449 21.65,9.058 32.12,14.008 3.16,-0.559 4.94,-4.981 3.81,-7.629 l -4.17,-2.41 c -9.47,-5.641 -14.76,-10.7 -15.01,-13.731 -0.79,-13.508 15.55,-52.391 21.39,-66.898 l 30.31,-75.422" style="fill:#231f20;fill-opacity:1;fill-rule:nonzero;stroke:none" id="path24"/>
      <path d="m 2111.97,619.43 c -21.41,-18.899 -40.78,-24.211 -48.1,-25.68 -8.01,2.91 -27.31,18.09 -38.39,29.621 -0.3,2.91 3.08,6.801 5.44,6.168 15.3,-9.629 47.82,-25.391 77.39,0.723 21.42,18.898 19.49,42.16 6,57.449 -9.91,11.219 -23.23,21.687 -52.42,17.238 l -38.18,-5.57 c -20.17,-2.828 -47.79,-1.348 -66.25,19.551 -21.38,24.218 -19.84,60.511 13.3,89.769 7.9,6.981 18.44,13.551 26.64,17.621 4.21,1.899 8.24,4.539 10.28,6.34 7.69,-4.09 22.6,-16.34 32.05,-27.051 0.32,-2.429 -3.08,-6.8 -5.7,-6.39 -14.13,9.312 -35.64,19.812 -60.11,-1.801 -24.99,-22.059 -15.72,-43.348 -5.36,-55.078 13.05,-14.789 34.74,-14.699 49.35,-12.231 l 31.65,5.25 c 24.85,4.243 53.7,3.403 75.09,-20.82 24.76,-28.051 20.47,-65.848 -12.68,-95.109" style="fill:#231f20;fill-opacity:1;fill-rule:nonzero;stroke:none" id="path26"/>
      <path d="m 2144.48,921.73 c -30.06,19.86 -35.26,22.481 -47.73,6.68 l -5.25,-6.719 c -2.26,-0.953 -7,2.989 -6.72,5.258 9.94,13.813 16.59,23.262 24.46,35.18 7.49,11.34 13.58,21.18 22.38,35.73 1.98,1.141 7.46,-1.668 7.47,-4.121 l -4.12,-7.457 c -9.64,-17.672 -5.18,-21.429 24.89,-41.293 l 100.97,-66.707 c 30.07,-19.859 34.42,-21.91 47.46,-6.492 l 5.53,6.531 c 2.27,0.95 6.99,-2.992 6.72,-5.25 -9.93,-13.8 -16.59,-23.261 -24.08,-34.609 -7.87,-11.91 -13.96,-21.75 -22.77,-36.313 -1.97,-1.136 -6.88,1.293 -7.46,4.122 l 3.83,7.652 c 9.07,18.047 5.48,21.238 -24.59,41.098 l -100.99,66.71" style="fill:#231f20;fill-opacity:1;fill-rule:nonzero;stroke:none" id="path28"/>
      <path d="m 2420.61,1080.68 c -8.91,-27.14 -22.93,-41.5 -28.5,-46.47 -8.38,-1.55 -32.69,1.78 -48.08,6.12 -1.74,2.36 -0.8,7.42 1.57,8.07 18.06,-0.56 54.07,2.29 66.36,39.76 8.92,27.14 -4.5,46.21 -23.88,52.58 -14.22,4.66 -31,6.95 -53.92,-11.64 l -30.11,-24.12 c -15.95,-12.65 -40.52,-25.34 -67.01,-16.65 -30.69,10.08 -47.71,42.15 -33.92,84.14 3.28,10.02 9.04,21.01 14.06,28.67 2.67,3.77 4.79,8.08 5.64,10.66 8.71,0.37 27.76,-2.67 41.32,-7.12 1.52,-1.93 0.79,-7.41 -1.68,-8.39 -16.88,0.89 -40.74,-0.94 -50.93,-31.95 -10.39,-31.66 8.38,-45.33 23.25,-50.21 18.73,-6.15 37.39,4.9 48.74,14.41 l 24.64,20.54 c 19.27,16.22 44.59,30.09 75.27,20.02 35.54,-11.67 50.96,-46.43 37.18,-88.42" style="fill:#231f20;fill-opacity:1;fill-rule:nonzero;stroke:none" id="path30"/>
    </g>
  </g>
</svg>